<?xml version="1.0" encoding="utf-8"?>
<!-- Generator: Adobe Illustrator 25.0.1, SVG Export Plug-In . SVG Version: 6.00 Build 0)  -->
<svg version="1.1" id="Final" xmlns="http://www.w3.org/2000/svg" xmlns:xlink="http://www.w3.org/1999/xlink" x="0px" y="0px"
	 viewBox="0 0 374 68" style="enable-background:new 0 0 374 68;" xml:space="preserve">
<style type="text/css">
	.st0{fill:#1C1C3A;}
	.st1{fill:#E42452;}
	.st2{fill:#989899;}
</style>
<g>
	<path class="st0" d="M34,67C16.4,67,2,52.6,2,35S16.4,3,34,3c8.5,0,16.6,3.3,22.6,9.4L45.3,23.7c-3-3-7-4.7-11.3-4.7
		c-8.8,0-16,7.2-16,16s7.2,16,16,16c5.9,0,11.1-3.2,13.9-8H34V29h32v6C66,52.6,51.6,67,34,67z"/>
	<path class="st0" d="M232,67c-17.6,0-32-14.4-32-32s14.4-32,32-32c8.5,0,16.6,3.3,22.6,9.4l-11.3,11.3c-3-3-7-4.7-11.3-4.7
		c-8.8,0-16,7.2-16,16s7.2,16,16,16c5.9,0,11.1-3.2,13.9-8H232V29h32v6C264,52.6,249.6,67,232,67z"/>
	<polygon class="st0" points="192,67 152,35 152,65 136,65 136,3 176,35 176,5 192,5 	"/>
	<g>
		<g>
			<polygon class="st0" points="112,5 96,33 80,5 62,5 96,67 130,5 			"/>
		</g>
		<path class="st1" d="M96,19L87.7,7.3C87.2,6.6,87,5.8,87,5c0-1.2,0.6-2.5,1.7-3.3C89.4,1.2,90.2,1,91,1c1.3,0,2.5,0.6,3.3,1.7
			L96,5l1.7-2.3c0.8-1.1,2-1.7,3.3-1.7c0.8,0,1.6,0.2,2.3,0.7c1.1,0.8,1.7,2,1.7,3.3c0,0.8-0.2,1.6-0.7,2.3L96,19z"/>
	</g>
</g>
<g>
	<path class="st2" d="M269.9,46.6c0-9.6,7.6-17.5,17.3-17.5c9.5,0,17.3,7.9,17.3,17.5s-7.7,17.6-17.3,17.6
		C277.5,64.1,269.9,56.2,269.9,46.6z M296.7,46.6c0-5.7-3.9-10.2-9.5-10.2c-5.7,0-9.5,4.6-9.5,10.2s3.8,10.3,9.5,10.3
		C292.9,56.9,296.7,52.2,296.7,46.6z"/>
	<path class="st2" d="M325.6,63.6l-7.8-11.9h-1.6v11.9h-7.7V29.6h13.9c7.9,0,11.4,5.6,11.4,11.2c0,4.8-3.5,9.3-7.9,10.3l8.7,12.4
		H325.6z M316.3,36.4v9.2h4.9c3.4,0,4.9-2.2,4.9-4.5c0-2.3-1.5-4.7-4.7-4.7H316.3z"/>
	<path class="st2" d="M335.9,46.6c0-9.6,7.6-17.6,17.4-17.6c5.4,0,10,2.3,13,5.8l-5.7,4.8c-1.8-2.1-4.4-3.4-7.3-3.4
		c-5.5,0-9.6,4.7-9.6,10.4c0,5.6,4.1,10.6,9.9,10.6c3.8,0,8-2.1,8-5.5H352v-6.2h18c0,12.8-7.1,18.6-16.2,18.6
		C343.3,64.1,335.9,56.2,335.9,46.6z"/>
</g>
</svg>
