<svg width="534" height="280" viewBox="0 0 534 280" fill="none" xmlns="http://www.w3.org/2000/svg">
<mask id="mask0" mask-type="alpha" maskUnits="userSpaceOnUse" x="0" y="0" width="534" height="280">
<rect width="534" height="280" fill="#C4C4C4"/>
</mask>
<g mask="url(#mask0)">
<path d="M300.132 140.231L299.346 148.36L284.385 151.715L276.956 144.415L278.168 134.99L286.176 135.574L286.693 133.534L289.513 132.196L300.132 140.231Z" fill="#E4D2B8"/>
<path d="M484.016 282.754L466.464 360.723L462.735 434.353L434.903 433.728L427.332 227.773L481.285 228.753L484.016 282.754Z" fill="#233F6D"/>
<path d="M380.712 277.986L378.447 353.672L390.325 430.209L418.636 431.056L417.386 348.224L432.367 279.532L437.396 234.568L392.474 229.268L380.712 277.986Z" fill="#233F6D"/>
<path d="M416.249 74.38L464.649 73.225L492.709 125.411L482.736 174.291L480.96 232.786L411.925 233.728L389.21 230.04L395.241 167.54L391.783 84.051L416.249 74.38Z" fill="#22203F"/>
<path d="M408.625 108.757L391.15 162.327L365.068 171.691L293.716 152.466L303.308 137.633L366.061 139.674L391.875 86.374L408.625 108.757Z" fill="#22203F"/>
<path d="M419.279 33.827C426.579 12.616 454.579 20.565 460.35 39.452C464.116 51.772 454.601 67.76 441.836 71.298C441.779 71.7365 441.746 72.1778 441.736 72.62C441.695 74.5971 441.512 76.5688 441.19 78.52C441.081 79.256 429.909 77.11 428.663 76.864C428.217 76.8344 427.801 76.6299 427.506 76.295C427.056 75.595 427.788 73.5269 427.87 72.7479C427.967 71.8279 428.064 70.9076 428.16 69.987C421.86 66.914 417.889 60.367 416.78 53.703C415.665 47.011 417.087 40.201 419.279 33.827Z" fill="#C1755D"/>
<path d="M437.548 14.66C438.915 16.2783 439.791 18.2535 440.073 20.353C440.404 21.5534 440.479 22.8098 440.293 24.041C439.252 28.856 434.477 28.604 430.784 30.156C426.233 32.1386 422.387 35.45 419.751 39.656C415.757 46.011 417.551 54.188 419.174 61.198C419.744 63.668 420.893 67.34 418.974 69.544C417.028 71.783 412.528 71.437 410.196 70.285C408.066 69.233 406.316 67.285 403.977 66.894C401.501 66.479 398.155 67.568 397.003 65.294C396.797 64.6165 396.545 63.9539 396.248 63.311C394.88 61.355 391.477 63.646 389.548 62.267C388.362 61.419 388.371 59.611 388.772 58.181C389.173 56.751 389.848 55.301 389.572 53.846C389.332 52.595 388.43 51.607 387.872 50.469C387.338 49.3245 387.141 48.0518 387.304 46.7995C387.467 45.5472 387.982 44.3671 388.791 43.397C391.84 39.869 397.74 40.538 401.006 37.22C402.706 35.491 403.368 32.997 404.006 30.637C404.644 28.277 405.406 25.789 407.221 24.19C409.468 22.214 412.713 22.55 414.93 20.207C416.23 18.83 417.102 17.038 418.564 15.84C420.491 14.261 424.258 13.047 426.655 12.24C428.515 11.5816 430.523 11.4594 432.449 11.8873C434.375 12.3152 436.142 13.276 437.548 14.66Z" fill="#2E3644"/>
<path d="M455.261 48.508C455.391 55.49 451.923 63.037 455.139 69.183C458.385 75.383 466.476 76.503 473.371 76.826C474.505 76.88 489.058 78.136 489.12 77.861C490.21 72.998 491.337 68.038 493.878 63.768C496.419 59.498 500.669 55.96 505.536 55.657C504.136 55.413 503.424 53.694 503.586 52.245C503.902 50.8224 504.353 49.4332 504.933 48.096C505.446 46.3828 505.48 44.5615 505.03 42.8306C504.58 41.0996 503.664 39.5253 502.381 38.279C497.233 33.479 487.899 35.473 483.487 29.963C480.75 26.545 481.076 21.589 479.642 17.417C476.87 9.34999 468.042 7.662 461.436 4.017C454.468 0.170996 447.907 -1.93601 439.863 -0.59601C429.893 1.06599 422.482 11.216 426.328 20.768C431.259 33.02 450.976 31.968 454.668 44.402C455.051 45.7375 455.25 47.1188 455.261 48.508Z" fill="#2E3644"/>
<path d="M450.333 74.099L435.32 95.319L428.262 94.741L416.493 73.22L450.333 74.099Z" fill="#E3E3E4"/>
<path d="M61.367 455.036L73.732 345.757L58.853 223.42L62.199 197.397L128.657 194.872L131.057 237.228L119.901 345.928L77.928 458.628L61.367 455.036Z" fill="#22203F"/>
<path d="M177.423 207.118L177.598 317.394L155.398 459.356L139.421 459.197L130.639 327.915L110.084 196.515L177.423 207.118Z" fill="#22203F"/>
<path d="M51.977 244.624C52.13 239.846 52.395 235.857 52.433 234.434C52.776 221.614 53.918 208.824 55.523 196.095C56.961 184.689 58.776 156.373 60.728 145.037C62.34 135.677 67.956 112.315 72.014 103.637C82.105 82.048 78.987 80.054 123.314 73.643C142.741 70.833 147.333 82.943 163.214 96.864C164.78 98.237 164.694 106.413 165.058 108.578C165.698 112.391 166.383 116.197 167.17 119.986C167.787 122.964 168.475 125.929 169.234 128.881C169.234 128.881 182.567 189.559 191.385 202.446C200.203 215.333 218.419 233.346 187.947 244.346C182.582 246.204 177.08 247.639 171.492 248.64C171.492 248.64 146.571 245.871 133.755 245.967C121.932 246.102 110.14 247.2 98.495 249.25C90.735 250.55 82.816 252.432 75.875 256.058C69.252 259.517 64.475 264.606 57.753 268.188C57.1456 268.594 56.4264 268.8 55.696 268.778C51.838 268.243 51.657 254.68 51.977 244.624Z" fill="#CCCCCC"/>
<path d="M123.366 79.7269C121.129 80.8319 115.85 81.2269 110.343 79.0709C109.798 78.861 109.33 78.4903 109.001 78.008C108.672 77.5258 108.497 76.9548 108.5 76.371C108.542 73.0235 108.809 69.6826 109.3 66.371C105.17 64.919 100.4 62.741 99.6769 58.422C99.528 57.0483 99.6105 55.6593 99.921 54.3129C100.892 48.6956 101.863 43.0783 102.833 37.461C103.043 35.495 103.637 33.5896 104.582 31.853C106.436 28.932 110.035 27.653 113.444 27.062C122.144 25.552 131.622 27.4369 138.367 33.1339C140.232 34.584 141.684 36.4985 142.576 38.6859C143.796 42.0969 142.884 45.86 141.964 49.364C141.114 52.5993 140.265 55.8326 139.416 59.064C138.439 62.784 137.029 67.0129 133.444 68.4079C131.544 69.1489 129.294 68.9319 127.571 70.0279C124.537 71.9729 124.947 76.4909 123.366 79.7269Z" fill="#F4D0C1"/>
<path d="M156.699 26.7649C157.3 25.6826 157.968 24.6389 158.699 23.6399C160.284 21.5009 162.219 19.6529 163.508 17.2889C164.797 14.9249 165.299 11.7499 163.857 9.63491C162.855 8.37724 161.452 7.50147 159.882 7.15391C154.857 5.64543 149.498 5.66109 144.482 7.19891C139.655 8.66491 135.313 11.0059 130.525 9.1209C126.025 7.3489 122.732 8.1909 117.949 10.1769C112.773 12.3259 105.872 12.9659 101.165 15.9399C99.18 17.2907 97.5366 19.0851 96.365 21.1809C92.033 28.4329 91.801 38.2989 95.797 45.3809C96.7038 46.9418 97.7475 48.419 98.916 49.7949C101.276 52.6479 104.097 56.1739 107.406 57.1749C107.555 53.8749 105.06 43.5229 107.406 40.7629C111.129 36.3829 119.306 37.6889 123.792 38.6409C128.683 39.6799 132.982 43.4329 137.837 44.1409C141.33 44.6519 145.845 42.6409 148.869 40.5649C152.598 38.0009 154.463 30.7329 156.699 26.7649Z" fill="#5E481B"/>
<path d="M86.514 81.9359L58.855 106.171L28 171.012L66.972 217.379L73.672 191.452L86.514 81.9359Z" fill="#CCCCCC"/>
<path d="M349.117 63.8159C323.107 58.3159 288.225 68.3909 277.441 90.1919C272.441 66.3969 233.89 47.2719 207.328 46.1259C137.233 43.1009 103.789 118.71 126.5 175.266C138.724 205.705 158.319 233.445 180.3 258.909C198.712 280.231 247.289 326.66 247.469 326.546C247.616 326.701 306.248 293.818 329.401 277.746C357.05 258.554 382.95 236.562 402.386 210.123C438.501 160.999 417.757 78.3199 349.117 63.8159Z" fill="#C71C50"/>
<g style="mix-blend-mode:multiply" opacity="0.12">
<g style="mix-blend-mode:multiply" opacity="0.12">
<path d="M386.706 213.736C366.482 233.031 344.209 250.055 320.283 264.506C297.169 278.386 270.716 289.681 243.002 291.07C230.176 291.789 217.338 289.881 205.275 285.464C225.201 305.605 247 326.377 247.121 326.3C247.267 326.456 305.9 293.573 329.052 277.5C356.701 258.308 382.602 236.316 402.037 209.876C408.248 201.369 412.898 191.827 415.772 181.694C406.924 193.108 397.206 203.821 386.706 213.736Z" fill="#000100"/>
</g>
</g>
<path d="M479.832 105.253L479.347 137.782L442.699 196.125L369.852 232.199L360.819 217.299L421.678 183.23L441.091 139.576L479.832 105.253Z" fill="#22203F"/>
<path d="M363.29 221.226L367.902 227.967L358.576 240.138L348.192 239.3L343.076 231.292L349.594 226.603L348.682 224.703L349.982 221.868L363.29 221.226Z" fill="#C1755D"/>
</g>
</svg>
